<?xml version="1.0" standalone="no"?>
<!DOCTYPE svg PUBLIC "-//W3C//DTD SVG 20010904//EN"
 "http://www.w3.org/TR/2001/REC-SVG-20010904/DTD/svg10.dtd">
<svg version="1.0" xmlns="http://www.w3.org/2000/svg"
 width="1200.000000pt" height="630.000000pt" viewBox="0 0 1200.000000 630.000000"
 preserveAspectRatio="xMidYMid meet">
<metadata>
Created by potrace 1.16, written by Peter Selinger 2001-2019
</metadata>
<g transform="translate(0.000000,630.000000) scale(0.100000,-0.100000)"
fill="#000000" stroke="none">
<path d="M0 3150 l0 -3150 6000 0 6000 0 0 3150 0 3150 -6000 0 -6000 0 0
-3150z m3841 1599 c33 -12 59 -26 59 -31 0 -5 14 4 31 22 22 22 37 29 51 24
11 -3 26 -7 32 -8 23 -4 75 -40 85 -60 6 -12 12 -41 12 -66 2 -57 -19 -529
-26 -595 -3 -27 -7 -76 -10 -108 -10 -119 -37 -336 -55 -442 -21 -117 -24
-139 -40 -253 -5 -40 -12 -77 -15 -82 -3 -5 -15 -58 -26 -117 -24 -124 -34
-172 -47 -228 -6 -22 -15 -65 -21 -95 -6 -30 -16 -68 -21 -85 -6 -16 -28 -95
-50 -175 -21 -80 -48 -176 -59 -214 -11 -38 -18 -73 -15 -77 3 -5 1 -9 -3 -9
-9 0 -43 -99 -43 -123 0 -40 -113 -265 -155 -311 -14 -15 -25 -31 -25 -37 0
-5 -11 -15 -25 -21 -14 -6 -25 -17 -25 -24 0 -13 -48 -12 -117 2 -65 13 -154
166 -193 334 -28 119 -52 204 -61 222 -5 9 -12 40 -15 69 -3 29 -10 75 -15
103 -5 28 -11 71 -13 96 -3 25 -9 74 -14 110 -11 75 -4 268 10 276 5 4 24 -8
42 -25 20 -19 48 -34 70 -38 20 -3 39 -9 41 -13 7 -12 37 -151 40 -190 2 -19
14 -92 28 -161 14 -69 25 -132 24 -140 -2 -19 11 -86 24 -126 5 -18 12 -42 15
-55 7 -32 9 -39 22 -71 7 -16 12 -33 12 -38 0 -19 16 -8 38 26 12 19 22 40 22
46 0 6 6 25 14 42 41 90 55 130 51 137 -3 4 2 13 9 19 8 7 18 31 21 54 4 23
16 65 27 92 11 28 19 51 19 52 -1 5 7 31 41 138 20 61 41 137 48 170 7 33 18
80 25 105 7 25 25 110 40 190 14 80 31 160 37 179 13 41 38 160 36 169 -1 4 2
30 6 57 5 28 10 59 11 70 2 11 8 56 15 100 6 44 18 123 25 175 8 52 17 142 20
200 11 221 17 306 21 340 10 89 16 230 10 230 -4 0 -20 -7 -37 -15 -46 -24
-134 -48 -379 -104 -343 -79 -450 -107 -450 -121 0 -5 -25 -8 -55 -8 -48 1
-59 5 -85 31 -16 17 -32 44 -34 61 -6 44 -2 86 7 86 5 0 5 5 2 10 -8 13 26 26
182 66 73 19 195 51 270 70 76 20 167 42 203 49 119 23 175 37 200 51 35 19
64 17 131 -7z m-2651 -168 c41 -4 85 -13 97 -19 12 -7 36 -12 53 -12 18 0 44
-9 58 -20 77 -59 136 -92 158 -87 23 4 23 2 18 -37 -4 -23 -12 -47 -18 -54
-12 -13 -110 -32 -169 -33 -122 -2 -139 -5 -151 -21 -7 -10 -16 -64 -20 -120
-4 -57 -13 -175 -20 -263 -7 -89 -9 -167 -4 -177 5 -10 4 -19 -2 -23 -5 -3 -7
-12 -4 -19 3 -7 -2 -51 -10 -97 -19 -100 -17 -186 3 -194 8 -3 39 -1 68 5 42
9 57 9 69 -1 20 -16 129 -6 149 15 9 9 25 16 35 16 30 0 31 3 45 151 7 77 7
77 38 82 43 6 99 -21 104 -51 1 -12 10 -33 18 -46 9 -13 13 -29 11 -37 -2 -8
-7 -34 -10 -58 -6 -36 -4 -42 8 -38 21 8 16 -56 -7 -81 -10 -11 -17 -23 -16
-28 1 -5 1 -96 0 -202 -1 -148 -4 -191 -13 -190 -22 5 -18 -409 6 -722 3 -41
8 -120 12 -175 3 -55 7 -101 9 -103 7 -7 232 72 259 91 22 16 30 17 36 7 7
-11 14 -10 35 4 30 20 80 14 89 -11 7 -18 -25 -65 -67 -97 -18 -14 -84 -42
-147 -64 -118 -41 -173 -64 -201 -84 -20 -14 -76 -3 -108 21 -25 19 -27 38
-46 376 -4 66 -8 140 -10 165 -2 25 -7 218 -11 430 -4 212 -8 386 -9 388 -1 1
-20 -11 -43 -28 -23 -16 -45 -30 -48 -30 -3 0 -31 -15 -62 -33 -210 -124 -250
-147 -260 -147 -7 0 -17 -11 -23 -24 -9 -18 -7 -31 6 -56 15 -29 15 -35 3 -44
-25 -19 -35 -70 -44 -231 -3 -55 -9 -111 -14 -125 -5 -14 -9 -52 -9 -85 0 -33
-4 -82 -9 -110 -15 -77 -10 -404 6 -414 7 -4 10 -15 6 -24 -3 -10 -1 -23 5
-31 9 -10 2 -17 -29 -31 -23 -10 -45 -25 -49 -33 -6 -10 -34 -15 -105 -17 -85
-3 -102 -1 -134 18 -46 26 -57 40 -79 97 -9 25 -27 56 -40 69 -19 19 -23 31
-17 50 4 15 8 40 9 56 1 17 7 82 13 145 23 236 35 376 33 400 -1 13 5 45 13
70 19 58 19 120 -1 127 -8 3 -31 -2 -51 -10 -54 -24 -131 -26 -143 -4 -6 9
-18 17 -28 17 -13 0 -25 16 -39 48 -19 43 -44 135 -39 137 1 1 17 12 35 24 27
19 32 28 28 47 -5 19 4 35 44 79 27 30 50 60 50 65 0 5 43 32 95 60 61 34 96
59 101 73 4 12 8 83 9 157 2 124 9 201 22 240 2 8 6 77 9 153 2 75 8 146 14
157 13 24 13 67 0 75 -8 5 -7 90 1 90 2 0 5 65 12 220 2 50 9 101 16 113 6 12
35 38 64 57 43 29 61 35 107 35 30 0 66 7 80 15 14 7 36 11 50 9 14 -3 59 -9
100 -13z m8483 -352 c14 -6 58 -66 108 -145 46 -74 86 -134 89 -134 3 1 43 62
89 136 49 80 92 139 105 143 44 17 126 -37 126 -83 0 -15 -46 -94 -115 -198
l-115 -173 0 -115 c0 -148 -7 -160 -90 -160 -83 0 -90 12 -90 160 l0 116 -106
154 c-153 224 -155 231 -76 281 53 34 45 32 75 18z m-2994 -23 c26 -23 29
-100 5 -134 -15 -21 -20 -22 -195 -22 l-179 0 0 -50 0 -50 120 0 c144 0 160
-9 160 -88 0 -81 -9 -86 -154 -90 l-126 -4 0 -114 c0 -101 -2 -116 -20 -134
-29 -29 -110 -28 -136 1 -18 20 -19 41 -19 345 0 231 3 326 12 335 22 22 81
28 294 26 198 -2 219 -4 238 -21z m554 4 c66 -25 154 -102 189 -166 56 -104
59 -238 7 -350 -34 -73 -122 -156 -192 -182 -130 -49 -268 -20 -369 76 -78 74
-110 143 -116 247 -10 182 93 336 258 386 51 15 168 10 223 -11z m448 -1 c25
-13 29 -54 29 -315 l0 -243 155 -3 c109 -2 158 -7 167 -16 7 -7 13 -33 13 -58
0 -73 -4 -74 -257 -74 -205 0 -219 1 -238 20 -19 19 -20 33 -20 343 0 177 4
328 9 335 18 29 97 35 142 11z m925 -12 c121 -62 194 -173 202 -308 10 -165
-62 -292 -208 -370 -39 -21 -59 -24 -145 -24 -86 0 -107 3 -150 25 -63 30
-144 111 -173 171 -83 171 -24 386 132 486 68 44 105 53 201 50 74 -3 99 -8
141 -30z m669 2 c83 -31 184 -131 211 -209 24 -72 24 -180 0 -246 -26 -68 -85
-145 -142 -183 -75 -49 -130 -61 -285 -61 -120 0 -140 2 -160 19 l-24 19 -3
314 c-2 337 0 355 48 370 14 4 86 6 160 4 109 -3 146 -8 195 -27z m1756 -1449
c79 -24 137 -62 145 -96 8 -31 -38 -102 -73 -110 -15 -4 -45 3 -82 20 -69 31
-121 33 -176 7 -73 -34 -105 -85 -105 -171 0 -62 13 -97 53 -139 40 -42 84
-61 139 -61 81 0 88 6 88 66 l0 54 -54 0 c-45 0 -58 4 -70 22 -23 32 -20 84 5
109 19 19 30 20 146 17 110 -3 126 -5 139 -22 10 -15 14 -55 14 -163 l0 -142
-30 -34 c-51 -58 -119 -82 -235 -82 -88 0 -107 3 -158 27 -71 34 -146 109
-184 185 -25 52 -28 68 -28 158 0 87 3 107 27 157 32 69 99 138 167 173 96 48
175 56 272 25z m-6065 -23 c121 -62 194 -173 202 -308 10 -165 -62 -292 -208
-370 -39 -21 -59 -24 -145 -24 -86 0 -107 3 -150 25 -63 30 -144 111 -173 171
-83 171 -24 386 132 486 68 44 105 53 201 50 74 -3 99 -8 141 -30z m1111 23
c6 0 19 -7 27 -16 14 -13 16 -53 16 -285 l0 -269 148 0 c179 0 192 -5 192 -80
0 -39 -4 -52 -19 -60 -12 -6 -105 -10 -233 -10 -177 0 -217 3 -236 16 -22 15
-22 15 -22 342 0 180 4 333 9 340 10 17 60 32 86 27 11 -3 25 -5 32 -5z m580
0 c6 0 19 -7 27 -16 14 -13 16 -59 16 -344 0 -328 0 -329 -22 -344 -12 -9 -41
-16 -63 -16 -22 0 -51 7 -63 16 -22 15 -22 15 -22 342 0 180 4 333 9 340 10
17 60 32 86 27 11 -3 25 -5 32 -5z m1385 -20 c16 -20 19 -35 15 -74 -7 -74
-12 -76 -214 -76 l-173 0 0 -50 0 -50 120 0 c107 0 122 -2 140 -20 27 -27 27
-99 1 -131 -18 -22 -27 -24 -140 -27 l-121 -4 0 -43 0 -44 176 -3 c174 -3 176
-3 196 -28 26 -32 21 -116 -8 -137 -14 -10 -74 -13 -261 -13 -230 0 -244 1
-263 20 -19 19 -20 33 -20 338 0 347 1 356 58 365 15 3 128 4 250 3 l224 -1
20 -25z m1028 3 c13 -11 15 -54 15 -261 0 -232 -1 -250 -22 -294 -78 -170
-292 -211 -425 -80 -50 47 -50 82 -4 128 42 42 69 43 120 4 59 -44 115 -40
141 11 12 22 15 74 15 246 0 239 4 258 58 265 40 6 85 -2 102 -19z m249 2 c13
-13 17 -50 21 -223 6 -229 15 -269 71 -297 37 -20 119 -19 147 1 50 35 57 64
62 290 4 153 9 215 18 227 28 33 132 29 154 -6 4 -7 8 -103 8 -213 0 -174 -3
-211 -20 -265 -26 -83 -81 -154 -150 -193 -51 -29 -62 -31 -150 -31 -78 0
-102 4 -135 22 -61 32 -114 91 -149 163 l-31 65 -3 212 c-4 223 0 246 41 263
30 13 96 5 116 -15z m953 -2 c159 -63 246 -196 236 -362 -8 -133 -82 -242
-206 -303 -65 -32 -69 -33 -223 -36 -148 -4 -158 -3 -178 17 -20 20 -21 30
-21 344 0 177 4 327 8 334 17 27 60 33 197 29 105 -3 152 -9 187 -23z m1551 9
c33 -28 29 -132 -6 -154 -7 -4 -90 -8 -184 -8 l-173 0 0 -50 0 -50 118 0 c147
0 157 -5 157 -84 0 -84 -10 -90 -155 -94 l-120 -4 0 -44 0 -44 163 0 c108 0
170 -4 186 -13 30 -15 45 -57 37 -102 -13 -65 -11 -65 -282 -65 -231 0 -245 1
-264 20 -19 19 -20 33 -20 338 0 347 1 356 58 365 15 3 126 4 248 3 166 -1
225 -4 237 -14z m-6425 -10 c9 -9 78 -100 152 -201 l135 -183 5 185 c4 135 9
188 19 200 10 12 30 17 72 17 92 0 89 12 89 -362 0 -305 -1 -319 -20 -338 -26
-26 -109 -28 -138 -2 -11 9 -82 100 -158 202 l-139 185 -3 -185 c-2 -174 -3
-186 -23 -202 -27 -22 -97 -24 -127 -2 -22 15 -22 16 -22 344 0 285 2 331 16
344 22 23 118 22 142 -2z m1526 12 c8 -3 82 -96 163 -206 l148 -200 5 197 c6
222 3 215 87 215 87 0 83 16 83 -360 0 -328 0 -329 -22 -344 -13 -9 -43 -16
-71 -16 -58 0 -50 -8 -222 224 -71 96 -133 175 -137 176 -5 0 -8 -83 -8 -184
0 -180 -1 -185 -22 -200 -33 -23 -103 -21 -128 4 -19 19 -20 33 -20 342 0 369
-2 358 81 358 26 0 54 -3 63 -6z"/>
<path d="M7055 4048 c-79 -28 -125 -95 -125 -181 0 -72 17 -113 63 -154 97
-85 231 -52 282 69 44 108 -15 238 -123 268 -44 12 -58 12 -97 -2z"/>
<path d="M8396 4045 c-140 -50 -170 -250 -51 -340 45 -35 99 -47 150 -34 91
25 135 87 135 191 0 93 -45 158 -129 186 -43 15 -56 15 -105 -3z"/>
<path d="M9050 3865 l0 -185 70 0 c142 0 225 87 206 214 -14 93 -100 155 -213
156 l-63 0 0 -185z"/>
<path d="M4756 2575 c-140 -50 -170 -250 -51 -340 45 -35 99 -47 150 -34 91
25 135 87 135 191 0 93 -45 158 -129 186 -43 15 -56 15 -105 -3z"/>
<path d="M10060 2396 l0 -186 64 0 c76 0 110 11 149 48 42 40 57 75 57 134 0
67 -24 114 -78 152 -34 24 -54 30 -116 34 l-76 5 0 -187z"/>
</g>
</svg>
